<?xml version="1.0" encoding="utf-8" standalone="no"?>
<!DOCTYPE svg PUBLIC "-//W3C//DTD SVG 1.1//EN"
  "http://www.w3.org/Graphics/SVG/1.1/DTD/svg11.dtd">
<svg xmlns:xlink="http://www.w3.org/1999/xlink" width="372.103125pt" height="267.468125pt" viewBox="0 0 372.103125 267.468125" xmlns="http://www.w3.org/2000/svg" version="1.1">
 <metadata>
  <rdf:RDF xmlns:dc="http://purl.org/dc/elements/1.1/" xmlns:cc="http://creativecommons.org/ns#" xmlns:rdf="http://www.w3.org/1999/02/22-rdf-syntax-ns#">
   <cc:Work>
    <dc:type rdf:resource="http://purl.org/dc/dcmitype/StillImage"/>
    <dc:date>2022-04-04T23:35:38.352164</dc:date>
    <dc:format>image/svg+xml</dc:format>
    <dc:creator>
     <cc:Agent>
      <dc:title>Matplotlib v3.5.1, https://matplotlib.org/</dc:title>
     </cc:Agent>
    </dc:creator>
   </cc:Work>
  </rdf:RDF>
 </metadata>
 <defs>
  <style type="text/css">*{stroke-linejoin: round; stroke-linecap: butt}</style>
 </defs>
 <g id="figure_1">
  <g id="patch_1">
   <path d="M 0 267.468125 
L 372.103125 267.468125 
L 372.103125 0 
L 0 0 
z
" style="fill: #ffffff"/>
  </g>
  <g id="axes_1">
   <g id="patch_2">
    <path d="M 30.103125 224.64 
L 364.903125 224.64 
L 364.903125 7.2 
L 30.103125 7.2 
L 30.103125 224.64 
z
" style="fill: none"/>
   </g>
   <g id="patch_3">
    <path d="M 45.321307 224.64 
L 46.510227 224.64 
L 46.510227 55.435819 
L 45.321307 55.435819 
z
" clip-path="url(#pabff213eab)" style="fill: #000080"/>
   </g>
   <g id="patch_4">
    <path d="M 46.510227 224.64 
L 47.699148 224.64 
L 47.699148 55.435819 
L 46.510227 55.435819 
z
" clip-path="url(#pabff213eab)" style="fill: #000084"/>
   </g>
   <g id="patch_5">
    <path d="M 47.699148 224.64 
L 48.888068 224.64 
L 48.888068 47.859512 
L 47.699148 47.859512 
z
" clip-path="url(#pabff213eab)" style="fill: #000089"/>
   </g>
   <g id="patch_6">
    <path d="M 48.888068 224.64 
L 50.076989 224.64 
L 50.076989 52.910383 
L 48.888068 52.910383 
z
" clip-path="url(#pabff213eab)" style="fill: #00008d"/>
   </g>
   <g id="patch_7">
    <path d="M 50.076989 224.64 
L 51.265909 224.64 
L 51.265909 35.232334 
L 50.076989 35.232334 
z
" clip-path="url(#pabff213eab)" style="fill: #000092"/>
   </g>
   <g id="patch_8">
    <path d="M 51.265909 224.64 
L 52.45483 224.64 
L 52.45483 68.062997 
L 51.265909 68.062997 
z
" clip-path="url(#pabff213eab)" style="fill: #000096"/>
   </g>
   <g id="patch_9">
    <path d="M 52.45483 224.64 
L 53.64375 224.64 
L 53.64375 47.859512 
L 52.45483 47.859512 
z
" clip-path="url(#pabff213eab)" style="fill: #00009b"/>
   </g>
   <g id="patch_10">
    <path d="M 53.64375 224.64 
L 54.83267 224.64 
L 54.83267 63.012125 
L 53.64375 63.012125 
z
" clip-path="url(#pabff213eab)" style="fill: #00009f"/>
   </g>
   <g id="patch_11">
    <path d="M 54.83267 224.64 
L 56.021591 224.64 
L 56.021591 35.232334 
L 54.83267 35.232334 
z
" clip-path="url(#pabff213eab)" style="fill: #0000a4"/>
   </g>
   <g id="patch_12">
    <path d="M 56.021591 224.64 
L 57.210511 224.64 
L 57.210511 42.808641 
L 56.021591 42.808641 
z
" clip-path="url(#pabff213eab)" style="fill: #0000a8"/>
   </g>
   <g id="patch_13">
    <path d="M 57.210511 224.64 
L 58.399432 224.64 
L 58.399432 70.588432 
L 57.210511 70.588432 
z
" clip-path="url(#pabff213eab)" style="fill: #0000ad"/>
   </g>
   <g id="patch_14">
    <path d="M 58.399432 224.64 
L 59.588352 224.64 
L 59.588352 88.266481 
L 58.399432 88.266481 
z
" clip-path="url(#pabff213eab)" style="fill: #0000b2"/>
   </g>
   <g id="patch_15">
    <path d="M 59.588352 224.64 
L 60.777273 224.64 
L 60.777273 17.554286 
L 59.588352 17.554286 
z
" clip-path="url(#pabff213eab)" style="fill: #0000b6"/>
   </g>
   <g id="patch_16">
    <path d="M 60.777273 224.64 
L 61.966193 224.64 
L 61.966193 50.384948 
L 60.777273 50.384948 
z
" clip-path="url(#pabff213eab)" style="fill: #0000bb"/>
   </g>
   <g id="patch_17">
    <path d="M 61.966193 224.64 
L 63.155114 224.64 
L 63.155114 57.961254 
L 61.966193 57.961254 
z
" clip-path="url(#pabff213eab)" style="fill: #0000bf"/>
   </g>
   <g id="patch_18">
    <path d="M 63.155114 224.64 
L 64.344034 224.64 
L 64.344034 50.384948 
L 63.155114 50.384948 
z
" clip-path="url(#pabff213eab)" style="fill: #0000c4"/>
   </g>
   <g id="patch_19">
    <path d="M 64.344034 224.64 
L 65.532955 224.64 
L 65.532955 73.113868 
L 64.344034 73.113868 
z
" clip-path="url(#pabff213eab)" style="fill: #0000c8"/>
   </g>
   <g id="patch_20">
    <path d="M 65.532955 224.64 
L 66.721875 224.64 
L 66.721875 60.48669 
L 65.532955 60.48669 
z
" clip-path="url(#pabff213eab)" style="fill: #0000cd"/>
   </g>
   <g id="patch_21">
    <path d="M 66.721875 224.64 
L 67.910795 224.64 
L 67.910795 32.706899 
L 66.721875 32.706899 
z
" clip-path="url(#pabff213eab)" style="fill: #0000d1"/>
   </g>
   <g id="patch_22">
    <path d="M 67.910795 224.64 
L 69.099716 224.64 
L 69.099716 47.859512 
L 67.910795 47.859512 
z
" clip-path="url(#pabff213eab)" style="fill: #0000d6"/>
   </g>
   <g id="patch_23">
    <path d="M 69.099716 224.64 
L 70.288636 224.64 
L 70.288636 65.537561 
L 69.099716 65.537561 
z
" clip-path="url(#pabff213eab)" style="fill: #0000da"/>
   </g>
   <g id="patch_24">
    <path d="M 70.288636 224.64 
L 71.477557 224.64 
L 71.477557 65.537561 
L 70.288636 65.537561 
z
" clip-path="url(#pabff213eab)" style="fill: #0000df"/>
   </g>
   <g id="patch_25">
    <path d="M 71.477557 224.64 
L 72.666477 224.64 
L 72.666477 78.164739 
L 71.477557 78.164739 
z
" clip-path="url(#pabff213eab)" style="fill: #0000e3"/>
   </g>
   <g id="patch_26">
    <path d="M 72.666477 224.64 
L 73.855398 224.64 
L 73.855398 50.384948 
L 72.666477 50.384948 
z
" clip-path="url(#pabff213eab)" style="fill: #0000e8"/>
   </g>
   <g id="patch_27">
    <path d="M 73.855398 224.64 
L 75.044318 224.64 
L 75.044318 85.741045 
L 73.855398 85.741045 
z
" clip-path="url(#pabff213eab)" style="fill: #0000ed"/>
   </g>
   <g id="patch_28">
    <path d="M 75.044318 224.64 
L 76.233239 224.64 
L 76.233239 103.419094 
L 75.044318 103.419094 
z
" clip-path="url(#pabff213eab)" style="fill: #0000f1"/>
   </g>
   <g id="patch_29">
    <path d="M 76.233239 224.64 
L 77.422159 224.64 
L 77.422159 110.995401 
L 76.233239 110.995401 
z
" clip-path="url(#pabff213eab)" style="fill: #0000f6"/>
   </g>
   <g id="patch_30">
    <path d="M 77.422159 224.64 
L 78.61108 224.64 
L 78.61108 110.995401 
L 77.422159 110.995401 
z
" clip-path="url(#pabff213eab)" style="fill: #0000fa"/>
   </g>
   <g id="patch_31">
    <path d="M 78.61108 224.64 
L 79.8 224.64 
L 79.8 85.741045 
L 78.61108 85.741045 
z
" clip-path="url(#pabff213eab)" style="fill: #0000ff"/>
   </g>
   <g id="patch_32">
    <path d="M 79.8 224.64 
L 80.98892 224.64 
L 80.98892 116.046272 
L 79.8 116.046272 
z
" clip-path="url(#pabff213eab)" style="fill: #0000ff"/>
   </g>
   <g id="patch_33">
    <path d="M 80.98892 224.64 
L 82.177841 224.64 
L 82.177841 110.995401 
L 80.98892 110.995401 
z
" clip-path="url(#pabff213eab)" style="fill: #0000ff"/>
   </g>
   <g id="patch_34">
    <path d="M 82.177841 224.64 
L 83.366761 224.64 
L 83.366761 123.622578 
L 82.177841 123.622578 
z
" clip-path="url(#pabff213eab)" style="fill: #0000ff"/>
   </g>
   <g id="patch_35">
    <path d="M 83.366761 224.64 
L 84.555682 224.64 
L 84.555682 93.317352 
L 83.366761 93.317352 
z
" clip-path="url(#pabff213eab)" style="fill: #0000ff"/>
   </g>
   <g id="patch_36">
    <path d="M 84.555682 224.64 
L 85.744602 224.64 
L 85.744602 116.046272 
L 84.555682 116.046272 
z
" clip-path="url(#pabff213eab)" style="fill: #0004ff"/>
   </g>
   <g id="patch_37">
    <path d="M 85.744602 224.64 
L 86.933523 224.64 
L 86.933523 131.198885 
L 85.744602 131.198885 
z
" clip-path="url(#pabff213eab)" style="fill: #0008ff"/>
   </g>
   <g id="patch_38">
    <path d="M 86.933523 224.64 
L 88.122443 224.64 
L 88.122443 118.571707 
L 86.933523 118.571707 
z
" clip-path="url(#pabff213eab)" style="fill: #000cff"/>
   </g>
   <g id="patch_39">
    <path d="M 88.122443 224.64 
L 89.311364 224.64 
L 89.311364 141.300627 
L 88.122443 141.300627 
z
" clip-path="url(#pabff213eab)" style="fill: #0010ff"/>
   </g>
   <g id="patch_40">
    <path d="M 89.311364 224.64 
L 90.500284 224.64 
L 90.500284 143.826063 
L 89.311364 143.826063 
z
" clip-path="url(#pabff213eab)" style="fill: #0014ff"/>
   </g>
   <g id="patch_41">
    <path d="M 90.500284 224.64 
L 91.689205 224.64 
L 91.689205 110.995401 
L 90.500284 110.995401 
z
" clip-path="url(#pabff213eab)" style="fill: #0018ff"/>
   </g>
   <g id="patch_42">
    <path d="M 91.689205 224.64 
L 92.878125 224.64 
L 92.878125 116.046272 
L 91.689205 116.046272 
z
" clip-path="url(#pabff213eab)" style="fill: #001cff"/>
   </g>
   <g id="patch_43">
    <path d="M 92.878125 224.64 
L 94.067045 224.64 
L 94.067045 133.724321 
L 92.878125 133.724321 
z
" clip-path="url(#pabff213eab)" style="fill: #0020ff"/>
   </g>
   <g id="patch_44">
    <path d="M 94.067045 224.64 
L 95.255966 224.64 
L 95.255966 141.300627 
L 94.067045 141.300627 
z
" clip-path="url(#pabff213eab)" style="fill: #0024ff"/>
   </g>
   <g id="patch_45">
    <path d="M 95.255966 224.64 
L 96.444886 224.64 
L 96.444886 143.826063 
L 95.255966 143.826063 
z
" clip-path="url(#pabff213eab)" style="fill: #0028ff"/>
   </g>
   <g id="patch_46">
    <path d="M 96.444886 224.64 
L 97.633807 224.64 
L 97.633807 166.554983 
L 96.444886 166.554983 
z
" clip-path="url(#pabff213eab)" style="fill: #002cff"/>
   </g>
   <g id="patch_47">
    <path d="M 97.633807 224.64 
L 98.822727 224.64 
L 98.822727 164.029547 
L 97.633807 164.029547 
z
" clip-path="url(#pabff213eab)" style="fill: #0030ff"/>
   </g>
   <g id="patch_48">
    <path d="M 98.822727 224.64 
L 100.011648 224.64 
L 100.011648 153.927805 
L 98.822727 153.927805 
z
" clip-path="url(#pabff213eab)" style="fill: #0034ff"/>
   </g>
   <g id="patch_49">
    <path d="M 100.011648 224.64 
L 101.200568 224.64 
L 101.200568 176.656725 
L 100.011648 176.656725 
z
" clip-path="url(#pabff213eab)" style="fill: #0038ff"/>
   </g>
   <g id="patch_50">
    <path d="M 101.200568 224.64 
L 102.389489 224.64 
L 102.389489 166.554983 
L 101.200568 166.554983 
z
" clip-path="url(#pabff213eab)" style="fill: #003cff"/>
   </g>
   <g id="patch_51">
    <path d="M 102.389489 224.64 
L 103.578409 224.64 
L 103.578409 151.402369 
L 102.389489 151.402369 
z
" clip-path="url(#pabff213eab)" style="fill: #0040ff"/>
   </g>
   <g id="patch_52">
    <path d="M 103.578409 224.64 
L 104.76733 224.64 
L 104.76733 141.300627 
L 103.578409 141.300627 
z
" clip-path="url(#pabff213eab)" style="fill: #0044ff"/>
   </g>
   <g id="patch_53">
    <path d="M 104.76733 224.64 
L 105.95625 224.64 
L 105.95625 146.351498 
L 104.76733 146.351498 
z
" clip-path="url(#pabff213eab)" style="fill: #0048ff"/>
   </g>
   <g id="patch_54">
    <path d="M 105.95625 224.64 
L 107.14517 224.64 
L 107.14517 169.080418 
L 105.95625 169.080418 
z
" clip-path="url(#pabff213eab)" style="fill: #004cff"/>
   </g>
   <g id="patch_55">
    <path d="M 107.14517 224.64 
L 108.334091 224.64 
L 108.334091 174.131289 
L 107.14517 174.131289 
z
" clip-path="url(#pabff213eab)" style="fill: #0050ff"/>
   </g>
   <g id="patch_56">
    <path d="M 108.334091 224.64 
L 109.523011 224.64 
L 109.523011 181.707596 
L 108.334091 181.707596 
z
" clip-path="url(#pabff213eab)" style="fill: #0054ff"/>
   </g>
   <g id="patch_57">
    <path d="M 109.523011 224.64 
L 110.711932 224.64 
L 110.711932 166.554983 
L 109.523011 166.554983 
z
" clip-path="url(#pabff213eab)" style="fill: #0058ff"/>
   </g>
   <g id="patch_58">
    <path d="M 110.711932 224.64 
L 111.900852 224.64 
L 111.900852 174.131289 
L 110.711932 174.131289 
z
" clip-path="url(#pabff213eab)" style="fill: #005cff"/>
   </g>
   <g id="patch_59">
    <path d="M 111.900852 224.64 
L 113.089773 224.64 
L 113.089773 174.131289 
L 111.900852 174.131289 
z
" clip-path="url(#pabff213eab)" style="fill: #0060ff"/>
   </g>
   <g id="patch_60">
    <path d="M 113.089773 224.64 
L 114.278693 224.64 
L 114.278693 181.707596 
L 113.089773 181.707596 
z
" clip-path="url(#pabff213eab)" style="fill: #0064ff"/>
   </g>
   <g id="patch_61">
    <path d="M 114.278693 224.64 
L 115.467614 224.64 
L 115.467614 164.029547 
L 114.278693 164.029547 
z
" clip-path="url(#pabff213eab)" style="fill: #0068ff"/>
   </g>
   <g id="patch_62">
    <path d="M 115.467614 224.64 
L 116.656534 224.64 
L 116.656534 169.080418 
L 115.467614 169.080418 
z
" clip-path="url(#pabff213eab)" style="fill: #006cff"/>
   </g>
   <g id="patch_63">
    <path d="M 116.656534 224.64 
L 117.845455 224.64 
L 117.845455 151.402369 
L 116.656534 151.402369 
z
" clip-path="url(#pabff213eab)" style="fill: #0070ff"/>
   </g>
   <g id="patch_64">
    <path d="M 117.845455 224.64 
L 119.034375 224.64 
L 119.034375 201.91108 
L 117.845455 201.91108 
z
" clip-path="url(#pabff213eab)" style="fill: #0074ff"/>
   </g>
   <g id="patch_65">
    <path d="M 119.034375 224.64 
L 120.223295 224.64 
L 120.223295 184.233031 
L 119.034375 184.233031 
z
" clip-path="url(#pabff213eab)" style="fill: #0078ff"/>
   </g>
   <g id="patch_66">
    <path d="M 120.223295 224.64 
L 121.412216 224.64 
L 121.412216 179.18216 
L 120.223295 179.18216 
z
" clip-path="url(#pabff213eab)" style="fill: #007cff"/>
   </g>
   <g id="patch_67">
    <path d="M 121.412216 224.64 
L 122.601136 224.64 
L 122.601136 171.605854 
L 121.412216 171.605854 
z
" clip-path="url(#pabff213eab)" style="fill: #0080ff"/>
   </g>
   <g id="patch_68">
    <path d="M 122.601136 224.64 
L 123.790057 224.64 
L 123.790057 176.656725 
L 122.601136 176.656725 
z
" clip-path="url(#pabff213eab)" style="fill: #0084ff"/>
   </g>
   <g id="patch_69">
    <path d="M 123.790057 224.64 
L 124.978977 224.64 
L 124.978977 191.809338 
L 123.790057 191.809338 
z
" clip-path="url(#pabff213eab)" style="fill: #0088ff"/>
   </g>
   <g id="patch_70">
    <path d="M 124.978977 224.64 
L 126.167898 224.64 
L 126.167898 201.91108 
L 124.978977 201.91108 
z
" clip-path="url(#pabff213eab)" style="fill: #008cff"/>
   </g>
   <g id="patch_71">
    <path d="M 126.167898 224.64 
L 127.356818 224.64 
L 127.356818 191.809338 
L 126.167898 191.809338 
z
" clip-path="url(#pabff213eab)" style="fill: #0090ff"/>
   </g>
   <g id="patch_72">
    <path d="M 127.356818 224.64 
L 128.545739 224.64 
L 128.545739 169.080418 
L 127.356818 169.080418 
z
" clip-path="url(#pabff213eab)" style="fill: #0094ff"/>
   </g>
   <g id="patch_73">
    <path d="M 128.545739 224.64 
L 129.734659 224.64 
L 129.734659 166.554983 
L 128.545739 166.554983 
z
" clip-path="url(#pabff213eab)" style="fill: #0098ff"/>
   </g>
   <g id="patch_74">
    <path d="M 129.734659 224.64 
L 130.92358 224.64 
L 130.92358 181.707596 
L 129.734659 181.707596 
z
" clip-path="url(#pabff213eab)" style="fill: #009cff"/>
   </g>
   <g id="patch_75">
    <path d="M 130.92358 224.64 
L 132.1125 224.64 
L 132.1125 181.707596 
L 130.92358 181.707596 
z
" clip-path="url(#pabff213eab)" style="fill: #00a0ff"/>
   </g>
   <g id="patch_76">
    <path d="M 132.1125 224.64 
L 133.30142 224.64 
L 133.30142 194.334774 
L 132.1125 194.334774 
z
" clip-path="url(#pabff213eab)" style="fill: #00a4ff"/>
   </g>
   <g id="patch_77">
    <path d="M 133.30142 224.64 
L 134.490341 224.64 
L 134.490341 191.809338 
L 133.30142 191.809338 
z
" clip-path="url(#pabff213eab)" style="fill: #00a8ff"/>
   </g>
   <g id="patch_78">
    <path d="M 134.490341 224.64 
L 135.679261 224.64 
L 135.679261 201.91108 
L 134.490341 201.91108 
z
" clip-path="url(#pabff213eab)" style="fill: #00acff"/>
   </g>
   <g id="patch_79">
    <path d="M 135.679261 224.64 
L 136.868182 224.64 
L 136.868182 196.860209 
L 135.679261 196.860209 
z
" clip-path="url(#pabff213eab)" style="fill: #00b0ff"/>
   </g>
   <g id="patch_80">
    <path d="M 136.868182 224.64 
L 138.057102 224.64 
L 138.057102 199.385645 
L 136.868182 199.385645 
z
" clip-path="url(#pabff213eab)" style="fill: #00b4ff"/>
   </g>
   <g id="patch_81">
    <path d="M 138.057102 224.64 
L 139.246023 224.64 
L 139.246023 179.18216 
L 138.057102 179.18216 
z
" clip-path="url(#pabff213eab)" style="fill: #00b8ff"/>
   </g>
   <g id="patch_82">
    <path d="M 139.246023 224.64 
L 140.434943 224.64 
L 140.434943 184.233031 
L 139.246023 184.233031 
z
" clip-path="url(#pabff213eab)" style="fill: #00bcff"/>
   </g>
   <g id="patch_83">
    <path d="M 140.434943 224.64 
L 141.623864 224.64 
L 141.623864 189.283902 
L 140.434943 189.283902 
z
" clip-path="url(#pabff213eab)" style="fill: #00c0ff"/>
   </g>
   <g id="patch_84">
    <path d="M 141.623864 224.64 
L 142.812784 224.64 
L 142.812784 189.283902 
L 141.623864 189.283902 
z
" clip-path="url(#pabff213eab)" style="fill: #00c4ff"/>
   </g>
   <g id="patch_85">
    <path d="M 142.812784 224.64 
L 144.001705 224.64 
L 144.001705 191.809338 
L 142.812784 191.809338 
z
" clip-path="url(#pabff213eab)" style="fill: #00c8ff"/>
   </g>
   <g id="patch_86">
    <path d="M 144.001705 224.64 
L 145.190625 224.64 
L 145.190625 189.283902 
L 144.001705 189.283902 
z
" clip-path="url(#pabff213eab)" style="fill: #00ccff"/>
   </g>
   <g id="patch_87">
    <path d="M 145.190625 224.64 
L 146.379545 224.64 
L 146.379545 196.860209 
L 145.190625 196.860209 
z
" clip-path="url(#pabff213eab)" style="fill: #00d0ff"/>
   </g>
   <g id="patch_88">
    <path d="M 146.379545 224.64 
L 147.568466 224.64 
L 147.568466 196.860209 
L 146.379545 196.860209 
z
" clip-path="url(#pabff213eab)" style="fill: #00d4ff"/>
   </g>
   <g id="patch_89">
    <path d="M 147.568466 224.64 
L 148.757386 224.64 
L 148.757386 196.860209 
L 147.568466 196.860209 
z
" clip-path="url(#pabff213eab)" style="fill: #00d8ff"/>
   </g>
   <g id="patch_90">
    <path d="M 148.757386 224.64 
L 149.946307 224.64 
L 149.946307 189.283902 
L 148.757386 189.283902 
z
" clip-path="url(#pabff213eab)" style="fill: #00dcfe"/>
   </g>
   <g id="patch_91">
    <path d="M 149.946307 224.64 
L 151.135227 224.64 
L 151.135227 209.487387 
L 149.946307 209.487387 
z
" clip-path="url(#pabff213eab)" style="fill: #00e0fb"/>
   </g>
   <g id="patch_92">
    <path d="M 151.135227 224.64 
L 152.324148 224.64 
L 152.324148 196.860209 
L 151.135227 196.860209 
z
" clip-path="url(#pabff213eab)" style="fill: #00e4f8"/>
   </g>
   <g id="patch_93">
    <path d="M 152.324148 224.64 
L 153.513068 224.64 
L 153.513068 196.860209 
L 152.324148 196.860209 
z
" clip-path="url(#pabff213eab)" style="fill: #02e8f4"/>
   </g>
   <g id="patch_94">
    <path d="M 153.513068 224.64 
L 154.701989 224.64 
L 154.701989 199.385645 
L 153.513068 199.385645 
z
" clip-path="url(#pabff213eab)" style="fill: #06ecf1"/>
   </g>
   <g id="patch_95">
    <path d="M 154.701989 224.64 
L 155.890909 224.64 
L 155.890909 199.385645 
L 154.701989 199.385645 
z
" clip-path="url(#pabff213eab)" style="fill: #09f0ee"/>
   </g>
   <g id="patch_96">
    <path d="M 155.890909 224.64 
L 157.07983 224.64 
L 157.07983 201.91108 
L 155.890909 201.91108 
z
" clip-path="url(#pabff213eab)" style="fill: #0cf4eb"/>
   </g>
   <g id="patch_97">
    <path d="M 157.07983 224.64 
L 158.26875 224.64 
L 158.26875 204.436516 
L 157.07983 204.436516 
z
" clip-path="url(#pabff213eab)" style="fill: #0ff8e7"/>
   </g>
   <g id="patch_98">
    <path d="M 158.26875 224.64 
L 159.45767 224.64 
L 159.45767 191.809338 
L 158.26875 191.809338 
z
" clip-path="url(#pabff213eab)" style="fill: #13fce4"/>
   </g>
   <g id="patch_99">
    <path d="M 159.45767 224.64 
L 160.646591 224.64 
L 160.646591 189.283902 
L 159.45767 189.283902 
z
" clip-path="url(#pabff213eab)" style="fill: #16ffe1"/>
   </g>
   <g id="patch_100">
    <path d="M 160.646591 224.64 
L 161.835511 224.64 
L 161.835511 194.334774 
L 160.646591 194.334774 
z
" clip-path="url(#pabff213eab)" style="fill: #19ffde"/>
   </g>
   <g id="patch_101">
    <path d="M 161.835511 224.64 
L 163.024432 224.64 
L 163.024432 204.436516 
L 161.835511 204.436516 
z
" clip-path="url(#pabff213eab)" style="fill: #1cffdb"/>
   </g>
   <g id="patch_102">
    <path d="M 163.024432 224.64 
L 164.213352 224.64 
L 164.213352 194.334774 
L 163.024432 194.334774 
z
" clip-path="url(#pabff213eab)" style="fill: #1fffd7"/>
   </g>
   <g id="patch_103">
    <path d="M 164.213352 224.64 
L 165.402273 224.64 
L 165.402273 204.436516 
L 164.213352 204.436516 
z
" clip-path="url(#pabff213eab)" style="fill: #23ffd4"/>
   </g>
   <g id="patch_104">
    <path d="M 165.402273 224.64 
L 166.591193 224.64 
L 166.591193 204.436516 
L 165.402273 204.436516 
z
" clip-path="url(#pabff213eab)" style="fill: #26ffd1"/>
   </g>
   <g id="patch_105">
    <path d="M 166.591193 224.64 
L 167.780114 224.64 
L 167.780114 199.385645 
L 166.591193 199.385645 
z
" clip-path="url(#pabff213eab)" style="fill: #29ffce"/>
   </g>
   <g id="patch_106">
    <path d="M 167.780114 224.64 
L 168.969034 224.64 
L 168.969034 209.487387 
L 167.780114 209.487387 
z
" clip-path="url(#pabff213eab)" style="fill: #2cffca"/>
   </g>
   <g id="patch_107">
    <path d="M 168.969034 224.64 
L 170.157955 224.64 
L 170.157955 199.385645 
L 168.969034 199.385645 
z
" clip-path="url(#pabff213eab)" style="fill: #30ffc7"/>
   </g>
   <g id="patch_108">
    <path d="M 170.157955 224.64 
L 171.346875 224.64 
L 171.346875 209.487387 
L 170.157955 209.487387 
z
" clip-path="url(#pabff213eab)" style="fill: #33ffc4"/>
   </g>
   <g id="patch_109">
    <path d="M 171.346875 224.64 
L 172.535795 224.64 
L 172.535795 206.961951 
L 171.346875 206.961951 
z
" clip-path="url(#pabff213eab)" style="fill: #36ffc1"/>
   </g>
   <g id="patch_110">
    <path d="M 172.535795 224.64 
L 173.724716 224.64 
L 173.724716 204.436516 
L 172.535795 204.436516 
z
" clip-path="url(#pabff213eab)" style="fill: #39ffbe"/>
   </g>
   <g id="patch_111">
    <path d="M 173.724716 224.64 
L 174.913636 224.64 
L 174.913636 201.91108 
L 173.724716 201.91108 
z
" clip-path="url(#pabff213eab)" style="fill: #3cffba"/>
   </g>
   <g id="patch_112">
    <path d="M 174.913636 224.64 
L 176.102557 224.64 
L 176.102557 191.809338 
L 174.913636 191.809338 
z
" clip-path="url(#pabff213eab)" style="fill: #40ffb7"/>
   </g>
   <g id="patch_113">
    <path d="M 176.102557 224.64 
L 177.291477 224.64 
L 177.291477 214.538258 
L 176.102557 214.538258 
z
" clip-path="url(#pabff213eab)" style="fill: #43ffb4"/>
   </g>
   <g id="patch_114">
    <path d="M 177.291477 224.64 
L 178.480398 224.64 
L 178.480398 199.385645 
L 177.291477 199.385645 
z
" clip-path="url(#pabff213eab)" style="fill: #46ffb1"/>
   </g>
   <g id="patch_115">
    <path d="M 178.480398 224.64 
L 179.669318 224.64 
L 179.669318 214.538258 
L 178.480398 214.538258 
z
" clip-path="url(#pabff213eab)" style="fill: #49ffad"/>
   </g>
   <g id="patch_116">
    <path d="M 179.669318 224.64 
L 180.858239 224.64 
L 180.858239 199.385645 
L 179.669318 199.385645 
z
" clip-path="url(#pabff213eab)" style="fill: #4dffaa"/>
   </g>
   <g id="patch_117">
    <path d="M 180.858239 224.64 
L 182.047159 224.64 
L 182.047159 204.436516 
L 180.858239 204.436516 
z
" clip-path="url(#pabff213eab)" style="fill: #50ffa7"/>
   </g>
   <g id="patch_118">
    <path d="M 182.047159 224.64 
L 183.23608 224.64 
L 183.23608 214.538258 
L 182.047159 214.538258 
z
" clip-path="url(#pabff213eab)" style="fill: #53ffa4"/>
   </g>
   <g id="patch_119">
    <path d="M 183.23608 224.64 
L 184.425 224.64 
L 184.425 204.436516 
L 183.23608 204.436516 
z
" clip-path="url(#pabff213eab)" style="fill: #56ffa0"/>
   </g>
   <g id="patch_120">
    <path d="M 184.425 224.64 
L 185.61392 224.64 
L 185.61392 204.436516 
L 184.425 204.436516 
z
" clip-path="url(#pabff213eab)" style="fill: #5aff9d"/>
   </g>
   <g id="patch_121">
    <path d="M 185.61392 224.64 
L 186.802841 224.64 
L 186.802841 196.860209 
L 185.61392 196.860209 
z
" clip-path="url(#pabff213eab)" style="fill: #5dff9a"/>
   </g>
   <g id="patch_122">
    <path d="M 186.802841 224.64 
L 187.991761 224.64 
L 187.991761 194.334774 
L 186.802841 194.334774 
z
" clip-path="url(#pabff213eab)" style="fill: #60ff97"/>
   </g>
   <g id="patch_123">
    <path d="M 187.991761 224.64 
L 189.180682 224.64 
L 189.180682 217.063693 
L 187.991761 217.063693 
z
" clip-path="url(#pabff213eab)" style="fill: #63ff94"/>
   </g>
   <g id="patch_124">
    <path d="M 189.180682 224.64 
L 190.369602 224.64 
L 190.369602 204.436516 
L 189.180682 204.436516 
z
" clip-path="url(#pabff213eab)" style="fill: #66ff90"/>
   </g>
   <g id="patch_125">
    <path d="M 190.369602 224.64 
L 191.558523 224.64 
L 191.558523 214.538258 
L 190.369602 214.538258 
z
" clip-path="url(#pabff213eab)" style="fill: #6aff8d"/>
   </g>
   <g id="patch_126">
    <path d="M 191.558523 224.64 
L 192.747443 224.64 
L 192.747443 209.487387 
L 191.558523 209.487387 
z
" clip-path="url(#pabff213eab)" style="fill: #6dff8a"/>
   </g>
   <g id="patch_127">
    <path d="M 192.747443 224.64 
L 193.936364 224.64 
L 193.936364 217.063693 
L 192.747443 217.063693 
z
" clip-path="url(#pabff213eab)" style="fill: #70ff87"/>
   </g>
   <g id="patch_128">
    <path d="M 193.936364 224.64 
L 195.125284 224.64 
L 195.125284 206.961951 
L 193.936364 206.961951 
z
" clip-path="url(#pabff213eab)" style="fill: #73ff83"/>
   </g>
   <g id="patch_129">
    <path d="M 195.125284 224.64 
L 196.314205 224.64 
L 196.314205 196.860209 
L 195.125284 196.860209 
z
" clip-path="url(#pabff213eab)" style="fill: #77ff80"/>
   </g>
   <g id="patch_130">
    <path d="M 196.314205 224.64 
L 197.503125 224.64 
L 197.503125 204.436516 
L 196.314205 204.436516 
z
" clip-path="url(#pabff213eab)" style="fill: #7aff7d"/>
   </g>
   <g id="patch_131">
    <path d="M 197.503125 224.64 
L 198.692045 224.64 
L 198.692045 201.91108 
L 197.503125 201.91108 
z
" clip-path="url(#pabff213eab)" style="fill: #7dff7a"/>
   </g>
   <g id="patch_132">
    <path d="M 198.692045 224.64 
L 199.880966 224.64 
L 199.880966 212.012822 
L 198.692045 212.012822 
z
" clip-path="url(#pabff213eab)" style="fill: #80ff77"/>
   </g>
   <g id="patch_133">
    <path d="M 199.880966 224.64 
L 201.069886 224.64 
L 201.069886 217.063693 
L 199.880966 217.063693 
z
" clip-path="url(#pabff213eab)" style="fill: #83ff73"/>
   </g>
   <g id="patch_134">
    <path d="M 201.069886 224.64 
L 202.258807 224.64 
L 202.258807 214.538258 
L 201.069886 214.538258 
z
" clip-path="url(#pabff213eab)" style="fill: #87ff70"/>
   </g>
   <g id="patch_135">
    <path d="M 202.258807 224.64 
L 203.447727 224.64 
L 203.447727 217.063693 
L 202.258807 217.063693 
z
" clip-path="url(#pabff213eab)" style="fill: #8aff6d"/>
   </g>
   <g id="patch_136">
    <path d="M 203.447727 224.64 
L 204.636648 224.64 
L 204.636648 217.063693 
L 203.447727 217.063693 
z
" clip-path="url(#pabff213eab)" style="fill: #8dff6a"/>
   </g>
   <g id="patch_137">
    <path d="M 204.636648 224.64 
L 205.825568 224.64 
L 205.825568 209.487387 
L 204.636648 209.487387 
z
" clip-path="url(#pabff213eab)" style="fill: #90ff66"/>
   </g>
   <g id="patch_138">
    <path d="M 205.825568 224.64 
L 207.014489 224.64 
L 207.014489 217.063693 
L 205.825568 217.063693 
z
" clip-path="url(#pabff213eab)" style="fill: #94ff63"/>
   </g>
   <g id="patch_139">
    <path d="M 207.014489 224.64 
L 208.203409 224.64 
L 208.203409 222.114564 
L 207.014489 222.114564 
z
" clip-path="url(#pabff213eab)" style="fill: #97ff60"/>
   </g>
   <g id="patch_140">
    <path d="M 208.203409 224.64 
L 209.39233 224.64 
L 209.39233 209.487387 
L 208.203409 209.487387 
z
" clip-path="url(#pabff213eab)" style="fill: #9aff5d"/>
   </g>
   <g id="patch_141">
    <path d="M 209.39233 224.64 
L 210.58125 224.64 
L 210.58125 209.487387 
L 209.39233 209.487387 
z
" clip-path="url(#pabff213eab)" style="fill: #9dff5a"/>
   </g>
   <g id="patch_142">
    <path d="M 210.58125 224.64 
L 211.77017 224.64 
L 211.77017 217.063693 
L 210.58125 217.063693 
z
" clip-path="url(#pabff213eab)" style="fill: #a0ff56"/>
   </g>
   <g id="patch_143">
    <path d="M 211.77017 224.64 
L 212.959091 224.64 
L 212.959091 217.063693 
L 211.77017 217.063693 
z
" clip-path="url(#pabff213eab)" style="fill: #a4ff53"/>
   </g>
   <g id="patch_144">
    <path d="M 212.959091 224.64 
L 214.148011 224.64 
L 214.148011 212.012822 
L 212.959091 212.012822 
z
" clip-path="url(#pabff213eab)" style="fill: #a7ff50"/>
   </g>
   <g id="patch_145">
    <path d="M 214.148011 224.64 
L 215.336932 224.64 
L 215.336932 209.487387 
L 214.148011 209.487387 
z
" clip-path="url(#pabff213eab)" style="fill: #aaff4d"/>
   </g>
   <g id="patch_146">
    <path d="M 215.336932 224.64 
L 216.525852 224.64 
L 216.525852 214.538258 
L 215.336932 214.538258 
z
" clip-path="url(#pabff213eab)" style="fill: #adff49"/>
   </g>
   <g id="patch_147">
    <path d="M 216.525852 224.64 
L 217.714773 224.64 
L 217.714773 212.012822 
L 216.525852 212.012822 
z
" clip-path="url(#pabff213eab)" style="fill: #b1ff46"/>
   </g>
   <g id="patch_148">
    <path d="M 217.714773 224.64 
L 218.903693 224.64 
L 218.903693 219.589129 
L 217.714773 219.589129 
z
" clip-path="url(#pabff213eab)" style="fill: #b4ff43"/>
   </g>
   <g id="patch_149">
    <path d="M 218.903693 224.64 
L 220.092614 224.64 
L 220.092614 206.961951 
L 218.903693 206.961951 
z
" clip-path="url(#pabff213eab)" style="fill: #b7ff40"/>
   </g>
   <g id="patch_150">
    <path d="M 220.092614 224.64 
L 221.281534 224.64 
L 221.281534 214.538258 
L 220.092614 214.538258 
z
" clip-path="url(#pabff213eab)" style="fill: #baff3c"/>
   </g>
   <g id="patch_151">
    <path d="M 221.281534 224.64 
L 222.470455 224.64 
L 222.470455 219.589129 
L 221.281534 219.589129 
z
" clip-path="url(#pabff213eab)" style="fill: #beff39"/>
   </g>
   <g id="patch_152">
    <path d="M 222.470455 224.64 
L 223.659375 224.64 
L 223.659375 212.012822 
L 222.470455 212.012822 
z
" clip-path="url(#pabff213eab)" style="fill: #c1ff36"/>
   </g>
   <g id="patch_153">
    <path d="M 223.659375 224.64 
L 224.848295 224.64 
L 224.848295 222.114564 
L 223.659375 222.114564 
z
" clip-path="url(#pabff213eab)" style="fill: #c4ff33"/>
   </g>
   <g id="patch_154">
    <path d="M 224.848295 224.64 
L 226.037216 224.64 
L 226.037216 214.538258 
L 224.848295 214.538258 
z
" clip-path="url(#pabff213eab)" style="fill: #c7ff30"/>
   </g>
   <g id="patch_155">
    <path d="M 226.037216 224.64 
L 227.226136 224.64 
L 227.226136 217.063693 
L 226.037216 217.063693 
z
" clip-path="url(#pabff213eab)" style="fill: #caff2c"/>
   </g>
   <g id="patch_156">
    <path d="M 227.226136 224.64 
L 228.415057 224.64 
L 228.415057 204.436516 
L 227.226136 204.436516 
z
" clip-path="url(#pabff213eab)" style="fill: #ceff29"/>
   </g>
   <g id="patch_157">
    <path d="M 228.415057 224.64 
L 229.603977 224.64 
L 229.603977 206.961951 
L 228.415057 206.961951 
z
" clip-path="url(#pabff213eab)" style="fill: #d1ff26"/>
   </g>
   <g id="patch_158">
    <path d="M 229.603977 224.64 
L 230.792898 224.64 
L 230.792898 214.538258 
L 229.603977 214.538258 
z
" clip-path="url(#pabff213eab)" style="fill: #d4ff23"/>
   </g>
   <g id="patch_159">
    <path d="M 230.792898 224.64 
L 231.981818 224.64 
L 231.981818 219.589129 
L 230.792898 219.589129 
z
" clip-path="url(#pabff213eab)" style="fill: #d7ff1f"/>
   </g>
   <g id="patch_160">
    <path d="M 231.981818 224.64 
L 233.170739 224.64 
L 233.170739 209.487387 
L 231.981818 209.487387 
z
" clip-path="url(#pabff213eab)" style="fill: #dbff1c"/>
   </g>
   <g id="patch_161">
    <path d="M 233.170739 224.64 
L 234.359659 224.64 
L 234.359659 214.538258 
L 233.170739 214.538258 
z
" clip-path="url(#pabff213eab)" style="fill: #deff19"/>
   </g>
   <g id="patch_162">
    <path d="M 234.359659 224.64 
L 235.54858 224.64 
L 235.54858 219.589129 
L 234.359659 219.589129 
z
" clip-path="url(#pabff213eab)" style="fill: #e1ff16"/>
   </g>
   <g id="patch_163">
    <path d="M 235.54858 224.64 
L 236.7375 224.64 
L 236.7375 219.589129 
L 235.54858 219.589129 
z
" clip-path="url(#pabff213eab)" style="fill: #e4ff13"/>
   </g>
   <g id="patch_164">
    <path d="M 236.7375 224.64 
L 237.92642 224.64 
L 237.92642 217.063693 
L 236.7375 217.063693 
z
" clip-path="url(#pabff213eab)" style="fill: #e7ff0f"/>
   </g>
   <g id="patch_165">
    <path d="M 237.92642 224.64 
L 239.115341 224.64 
L 239.115341 222.114564 
L 237.92642 222.114564 
z
" clip-path="url(#pabff213eab)" style="fill: #ebff0c"/>
   </g>
   <g id="patch_166">
    <path d="M 239.115341 224.64 
L 240.304261 224.64 
L 240.304261 222.114564 
L 239.115341 222.114564 
z
" clip-path="url(#pabff213eab)" style="fill: #eeff09"/>
   </g>
   <g id="patch_167">
    <path d="M 240.304261 224.64 
L 241.493182 224.64 
L 241.493182 222.114564 
L 240.304261 222.114564 
z
" clip-path="url(#pabff213eab)" style="fill: #f1fc06"/>
   </g>
   <g id="patch_168">
    <path d="M 241.493182 224.64 
L 242.682102 224.64 
L 242.682102 219.589129 
L 241.493182 219.589129 
z
" clip-path="url(#pabff213eab)" style="fill: #f4f802"/>
   </g>
   <g id="patch_169">
    <path d="M 242.682102 224.64 
L 243.871023 224.64 
L 243.871023 217.063693 
L 242.682102 217.063693 
z
" clip-path="url(#pabff213eab)" style="fill: #f8f500"/>
   </g>
   <g id="patch_170">
    <path d="M 243.871023 224.64 
L 245.059943 224.64 
L 245.059943 222.114564 
L 243.871023 222.114564 
z
" clip-path="url(#pabff213eab)" style="fill: #fbf100"/>
   </g>
   <g id="patch_171">
    <path d="M 245.059943 224.64 
L 246.248864 224.64 
L 246.248864 206.961951 
L 245.059943 206.961951 
z
" clip-path="url(#pabff213eab)" style="fill: #feed00"/>
   </g>
   <g id="patch_172">
    <path d="M 246.248864 224.64 
L 247.437784 224.64 
L 247.437784 219.589129 
L 246.248864 219.589129 
z
" clip-path="url(#pabff213eab)" style="fill: #ffea00"/>
   </g>
   <g id="patch_173">
    <path d="M 247.437784 224.64 
L 248.626705 224.64 
L 248.626705 214.538258 
L 247.437784 214.538258 
z
" clip-path="url(#pabff213eab)" style="fill: #ffe600"/>
   </g>
   <g id="patch_174">
    <path d="M 248.626705 224.64 
L 249.815625 224.64 
L 249.815625 212.012822 
L 248.626705 212.012822 
z
" clip-path="url(#pabff213eab)" style="fill: #ffe200"/>
   </g>
   <g id="patch_175">
    <path d="M 249.815625 224.64 
L 251.004545 224.64 
L 251.004545 219.589129 
L 249.815625 219.589129 
z
" clip-path="url(#pabff213eab)" style="fill: #ffde00"/>
   </g>
   <g id="patch_176">
    <path d="M 251.004545 224.64 
L 252.193466 224.64 
L 252.193466 222.114564 
L 251.004545 222.114564 
z
" clip-path="url(#pabff213eab)" style="fill: #ffdb00"/>
   </g>
   <g id="patch_177">
    <path d="M 252.193466 224.64 
L 253.382386 224.64 
L 253.382386 219.589129 
L 252.193466 219.589129 
z
" clip-path="url(#pabff213eab)" style="fill: #ffd700"/>
   </g>
   <g id="patch_178">
    <path d="M 253.382386 224.64 
L 254.571307 224.64 
L 254.571307 219.589129 
L 253.382386 219.589129 
z
" clip-path="url(#pabff213eab)" style="fill: #ffd300"/>
   </g>
   <g id="patch_179">
    <path d="M 254.571307 224.64 
L 255.760227 224.64 
L 255.760227 219.589129 
L 254.571307 219.589129 
z
" clip-path="url(#pabff213eab)" style="fill: #ffd000"/>
   </g>
   <g id="patch_180">
    <path d="M 255.760227 224.64 
L 256.949148 224.64 
L 256.949148 222.114564 
L 255.760227 222.114564 
z
" clip-path="url(#pabff213eab)" style="fill: #ffcc00"/>
   </g>
   <g id="patch_181">
    <path d="M 256.949148 224.64 
L 258.138068 224.64 
L 258.138068 222.114564 
L 256.949148 222.114564 
z
" clip-path="url(#pabff213eab)" style="fill: #ffc800"/>
   </g>
   <g id="patch_182">
    <path d="M 258.138068 224.64 
L 259.326989 224.64 
L 259.326989 214.538258 
L 258.138068 214.538258 
z
" clip-path="url(#pabff213eab)" style="fill: #ffc400"/>
   </g>
   <g id="patch_183">
    <path d="M 259.326989 224.64 
L 260.515909 224.64 
L 260.515909 219.589129 
L 259.326989 219.589129 
z
" clip-path="url(#pabff213eab)" style="fill: #ffc100"/>
   </g>
   <g id="patch_184">
    <path d="M 260.515909 224.64 
L 261.70483 224.64 
L 261.70483 222.114564 
L 260.515909 222.114564 
z
" clip-path="url(#pabff213eab)" style="fill: #ffbd00"/>
   </g>
   <g id="patch_185">
    <path d="M 261.70483 224.64 
L 262.89375 224.64 
L 262.89375 219.589129 
L 261.70483 219.589129 
z
" clip-path="url(#pabff213eab)" style="fill: #ffb900"/>
   </g>
   <g id="patch_186">
    <path d="M 262.89375 224.64 
L 264.08267 224.64 
L 264.08267 219.589129 
L 262.89375 219.589129 
z
" clip-path="url(#pabff213eab)" style="fill: #ffb600"/>
   </g>
   <g id="patch_187">
    <path d="M 264.08267 224.64 
L 265.271591 224.64 
L 265.271591 217.063693 
L 264.08267 217.063693 
z
" clip-path="url(#pabff213eab)" style="fill: #ffb200"/>
   </g>
   <g id="patch_188">
    <path d="M 265.271591 224.64 
L 266.460511 224.64 
L 266.460511 222.114564 
L 265.271591 222.114564 
z
" clip-path="url(#pabff213eab)" style="fill: #ffae00"/>
   </g>
   <g id="patch_189">
    <path d="M 266.460511 224.64 
L 267.649432 224.64 
L 267.649432 222.114564 
L 266.460511 222.114564 
z
" clip-path="url(#pabff213eab)" style="fill: #ffab00"/>
   </g>
   <g id="patch_190">
    <path d="M 267.649432 224.64 
L 268.838352 224.64 
L 268.838352 219.589129 
L 267.649432 219.589129 
z
" clip-path="url(#pabff213eab)" style="fill: #ffa700"/>
   </g>
   <g id="patch_191">
    <path d="M 268.838352 224.64 
L 270.027273 224.64 
L 270.027273 219.589129 
L 268.838352 219.589129 
z
" clip-path="url(#pabff213eab)" style="fill: #ffa300"/>
   </g>
   <g id="patch_192">
    <path d="M 270.027273 224.64 
L 271.216193 224.64 
L 271.216193 217.063693 
L 270.027273 217.063693 
z
" clip-path="url(#pabff213eab)" style="fill: #ff9f00"/>
   </g>
   <g id="patch_193">
    <path d="M 271.216193 224.64 
L 272.405114 224.64 
L 272.405114 222.114564 
L 271.216193 222.114564 
z
" clip-path="url(#pabff213eab)" style="fill: #ff9c00"/>
   </g>
   <g id="patch_194">
    <path d="M 272.405114 224.64 
L 273.594034 224.64 
L 273.594034 222.114564 
L 272.405114 222.114564 
z
" clip-path="url(#pabff213eab)" style="fill: #ff9800"/>
   </g>
   <g id="patch_195">
    <path d="M 273.594034 224.64 
L 274.782955 224.64 
L 274.782955 222.114564 
L 273.594034 222.114564 
z
" clip-path="url(#pabff213eab)" style="fill: #ff9400"/>
   </g>
   <g id="patch_196">
    <path d="M 274.782955 224.64 
L 275.971875 224.64 
L 275.971875 224.64 
L 274.782955 224.64 
z
" clip-path="url(#pabff213eab)" style="fill: #ff9100"/>
   </g>
   <g id="patch_197">
    <path d="M 275.971875 224.64 
L 277.160795 224.64 
L 277.160795 222.114564 
L 275.971875 222.114564 
z
" clip-path="url(#pabff213eab)" style="fill: #ff8d00"/>
   </g>
   <g id="patch_198">
    <path d="M 277.160795 224.64 
L 278.349716 224.64 
L 278.349716 219.589129 
L 277.160795 219.589129 
z
" clip-path="url(#pabff213eab)" style="fill: #ff8900"/>
   </g>
   <g id="patch_199">
    <path d="M 278.349716 224.64 
L 279.538636 224.64 
L 279.538636 222.114564 
L 278.349716 222.114564 
z
" clip-path="url(#pabff213eab)" style="fill: #ff8600"/>
   </g>
   <g id="patch_200">
    <path d="M 279.538636 224.64 
L 280.727557 224.64 
L 280.727557 224.64 
L 279.538636 224.64 
z
" clip-path="url(#pabff213eab)" style="fill: #ff8200"/>
   </g>
   <g id="patch_201">
    <path d="M 280.727557 224.64 
L 281.916477 224.64 
L 281.916477 219.589129 
L 280.727557 219.589129 
z
" clip-path="url(#pabff213eab)" style="fill: #ff7e00"/>
   </g>
   <g id="patch_202">
    <path d="M 281.916477 224.64 
L 283.105398 224.64 
L 283.105398 222.114564 
L 281.916477 222.114564 
z
" clip-path="url(#pabff213eab)" style="fill: #ff7a00"/>
   </g>
   <g id="patch_203">
    <path d="M 283.105398 224.64 
L 284.294318 224.64 
L 284.294318 222.114564 
L 283.105398 222.114564 
z
" clip-path="url(#pabff213eab)" style="fill: #ff7700"/>
   </g>
   <g id="patch_204">
    <path d="M 284.294318 224.64 
L 285.483239 224.64 
L 285.483239 222.114564 
L 284.294318 222.114564 
z
" clip-path="url(#pabff213eab)" style="fill: #ff7300"/>
   </g>
   <g id="patch_205">
    <path d="M 285.483239 224.64 
L 286.672159 224.64 
L 286.672159 219.589129 
L 285.483239 219.589129 
z
" clip-path="url(#pabff213eab)" style="fill: #ff6f00"/>
   </g>
   <g id="patch_206">
    <path d="M 286.672159 224.64 
L 287.86108 224.64 
L 287.86108 224.64 
L 286.672159 224.64 
z
" clip-path="url(#pabff213eab)" style="fill: #ff6c00"/>
   </g>
   <g id="patch_207">
    <path d="M 287.86108 224.64 
L 289.05 224.64 
L 289.05 219.589129 
L 287.86108 219.589129 
z
" clip-path="url(#pabff213eab)" style="fill: #ff6800"/>
   </g>
   <g id="patch_208">
    <path d="M 289.05 224.64 
L 290.23892 224.64 
L 290.23892 219.589129 
L 289.05 219.589129 
z
" clip-path="url(#pabff213eab)" style="fill: #ff6400"/>
   </g>
   <g id="patch_209">
    <path d="M 290.23892 224.64 
L 291.427841 224.64 
L 291.427841 219.589129 
L 290.23892 219.589129 
z
" clip-path="url(#pabff213eab)" style="fill: #ff6000"/>
   </g>
   <g id="patch_210">
    <path d="M 291.427841 224.64 
L 292.616761 224.64 
L 292.616761 222.114564 
L 291.427841 222.114564 
z
" clip-path="url(#pabff213eab)" style="fill: #ff5d00"/>
   </g>
   <g id="patch_211">
    <path d="M 292.616761 224.64 
L 293.805682 224.64 
L 293.805682 222.114564 
L 292.616761 222.114564 
z
" clip-path="url(#pabff213eab)" style="fill: #ff5900"/>
   </g>
   <g id="patch_212">
    <path d="M 293.805682 224.64 
L 294.994602 224.64 
L 294.994602 224.64 
L 293.805682 224.64 
z
" clip-path="url(#pabff213eab)" style="fill: #ff5500"/>
   </g>
   <g id="patch_213">
    <path d="M 294.994602 224.64 
L 296.183523 224.64 
L 296.183523 224.64 
L 294.994602 224.64 
z
" clip-path="url(#pabff213eab)" style="fill: #ff5200"/>
   </g>
   <g id="patch_214">
    <path d="M 296.183523 224.64 
L 297.372443 224.64 
L 297.372443 224.64 
L 296.183523 224.64 
z
" clip-path="url(#pabff213eab)" style="fill: #ff4e00"/>
   </g>
   <g id="patch_215">
    <path d="M 297.372443 224.64 
L 298.561364 224.64 
L 298.561364 222.114564 
L 297.372443 222.114564 
z
" clip-path="url(#pabff213eab)" style="fill: #ff4a00"/>
   </g>
   <g id="patch_216">
    <path d="M 298.561364 224.64 
L 299.750284 224.64 
L 299.750284 222.114564 
L 298.561364 222.114564 
z
" clip-path="url(#pabff213eab)" style="fill: #ff4700"/>
   </g>
   <g id="patch_217">
    <path d="M 299.750284 224.64 
L 300.939205 224.64 
L 300.939205 224.64 
L 299.750284 224.64 
z
" clip-path="url(#pabff213eab)" style="fill: #ff4300"/>
   </g>
   <g id="patch_218">
    <path d="M 300.939205 224.64 
L 302.128125 224.64 
L 302.128125 222.114564 
L 300.939205 222.114564 
z
" clip-path="url(#pabff213eab)" style="fill: #ff3f00"/>
   </g>
   <g id="patch_219">
    <path d="M 302.128125 224.64 
L 303.317045 224.64 
L 303.317045 222.114564 
L 302.128125 222.114564 
z
" clip-path="url(#pabff213eab)" style="fill: #ff3b00"/>
   </g>
   <g id="patch_220">
    <path d="M 303.317045 224.64 
L 304.505966 224.64 
L 304.505966 217.063693 
L 303.317045 217.063693 
z
" clip-path="url(#pabff213eab)" style="fill: #ff3800"/>
   </g>
   <g id="patch_221">
    <path d="M 304.505966 224.64 
L 305.694886 224.64 
L 305.694886 224.64 
L 304.505966 224.64 
z
" clip-path="url(#pabff213eab)" style="fill: #ff3400"/>
   </g>
   <g id="patch_222">
    <path d="M 305.694886 224.64 
L 306.883807 224.64 
L 306.883807 222.114564 
L 305.694886 222.114564 
z
" clip-path="url(#pabff213eab)" style="fill: #ff3000"/>
   </g>
   <g id="patch_223">
    <path d="M 306.883807 224.64 
L 308.072727 224.64 
L 308.072727 222.114564 
L 306.883807 222.114564 
z
" clip-path="url(#pabff213eab)" style="fill: #ff2d00"/>
   </g>
   <g id="patch_224">
    <path d="M 308.072727 224.64 
L 309.261648 224.64 
L 309.261648 219.589129 
L 308.072727 219.589129 
z
" clip-path="url(#pabff213eab)" style="fill: #ff2900"/>
   </g>
   <g id="patch_225">
    <path d="M 309.261648 224.64 
L 310.450568 224.64 
L 310.450568 222.114564 
L 309.261648 222.114564 
z
" clip-path="url(#pabff213eab)" style="fill: #ff2500"/>
   </g>
   <g id="patch_226">
    <path d="M 310.450568 224.64 
L 311.639489 224.64 
L 311.639489 224.64 
L 310.450568 224.64 
z
" clip-path="url(#pabff213eab)" style="fill: #ff2200"/>
   </g>
   <g id="patch_227">
    <path d="M 311.639489 224.64 
L 312.828409 224.64 
L 312.828409 222.114564 
L 311.639489 222.114564 
z
" clip-path="url(#pabff213eab)" style="fill: #ff1e00"/>
   </g>
   <g id="patch_228">
    <path d="M 312.828409 224.64 
L 314.01733 224.64 
L 314.01733 224.64 
L 312.828409 224.64 
z
" clip-path="url(#pabff213eab)" style="fill: #ff1a00"/>
   </g>
   <g id="patch_229">
    <path d="M 314.01733 224.64 
L 315.20625 224.64 
L 315.20625 224.64 
L 314.01733 224.64 
z
" clip-path="url(#pabff213eab)" style="fill: #ff1600"/>
   </g>
   <g id="patch_230">
    <path d="M 315.20625 224.64 
L 316.39517 224.64 
L 316.39517 224.64 
L 315.20625 224.64 
z
" clip-path="url(#pabff213eab)" style="fill: #ff1300"/>
   </g>
   <g id="patch_231">
    <path d="M 316.39517 224.64 
L 317.584091 224.64 
L 317.584091 224.64 
L 316.39517 224.64 
z
" clip-path="url(#pabff213eab)" style="fill: #fa0f00"/>
   </g>
   <g id="patch_232">
    <path d="M 317.584091 224.64 
L 318.773011 224.64 
L 318.773011 219.589129 
L 317.584091 219.589129 
z
" clip-path="url(#pabff213eab)" style="fill: #f60b00"/>
   </g>
   <g id="patch_233">
    <path d="M 318.773011 224.64 
L 319.961932 224.64 
L 319.961932 222.114564 
L 318.773011 222.114564 
z
" clip-path="url(#pabff213eab)" style="fill: #f10800"/>
   </g>
   <g id="patch_234">
    <path d="M 319.961932 224.64 
L 321.150852 224.64 
L 321.150852 222.114564 
L 319.961932 222.114564 
z
" clip-path="url(#pabff213eab)" style="fill: #ed0400"/>
   </g>
   <g id="patch_235">
    <path d="M 321.150852 224.64 
L 322.339773 224.64 
L 322.339773 219.589129 
L 321.150852 219.589129 
z
" clip-path="url(#pabff213eab)" style="fill: #e80000"/>
   </g>
   <g id="patch_236">
    <path d="M 322.339773 224.64 
L 323.528693 224.64 
L 323.528693 224.64 
L 322.339773 224.64 
z
" clip-path="url(#pabff213eab)" style="fill: #e40000"/>
   </g>
   <g id="patch_237">
    <path d="M 323.528693 224.64 
L 324.717614 224.64 
L 324.717614 219.589129 
L 323.528693 219.589129 
z
" clip-path="url(#pabff213eab)" style="fill: #df0000"/>
   </g>
   <g id="patch_238">
    <path d="M 324.717614 224.64 
L 325.906534 224.64 
L 325.906534 224.64 
L 324.717614 224.64 
z
" clip-path="url(#pabff213eab)" style="fill: #da0000"/>
   </g>
   <g id="patch_239">
    <path d="M 325.906534 224.64 
L 327.095455 224.64 
L 327.095455 224.64 
L 325.906534 224.64 
z
" clip-path="url(#pabff213eab)" style="fill: #d60000"/>
   </g>
   <g id="patch_240">
    <path d="M 327.095455 224.64 
L 328.284375 224.64 
L 328.284375 224.64 
L 327.095455 224.64 
z
" clip-path="url(#pabff213eab)" style="fill: #d10000"/>
   </g>
   <g id="patch_241">
    <path d="M 328.284375 224.64 
L 329.473295 224.64 
L 329.473295 224.64 
L 328.284375 224.64 
z
" clip-path="url(#pabff213eab)" style="fill: #cd0000"/>
   </g>
   <g id="patch_242">
    <path d="M 329.473295 224.64 
L 330.662216 224.64 
L 330.662216 224.64 
L 329.473295 224.64 
z
" clip-path="url(#pabff213eab)" style="fill: #c80000"/>
   </g>
   <g id="patch_243">
    <path d="M 330.662216 224.64 
L 331.851136 224.64 
L 331.851136 224.64 
L 330.662216 224.64 
z
" clip-path="url(#pabff213eab)" style="fill: #c40000"/>
   </g>
   <g id="patch_244">
    <path d="M 331.851136 224.64 
L 333.040057 224.64 
L 333.040057 222.114564 
L 331.851136 222.114564 
z
" clip-path="url(#pabff213eab)" style="fill: #bf0000"/>
   </g>
   <g id="patch_245">
    <path d="M 333.040057 224.64 
L 334.228977 224.64 
L 334.228977 217.063693 
L 333.040057 217.063693 
z
" clip-path="url(#pabff213eab)" style="fill: #bb0000"/>
   </g>
   <g id="patch_246">
    <path d="M 334.228977 224.64 
L 335.417898 224.64 
L 335.417898 219.589129 
L 334.228977 219.589129 
z
" clip-path="url(#pabff213eab)" style="fill: #b60000"/>
   </g>
   <g id="patch_247">
    <path d="M 335.417898 224.64 
L 336.606818 224.64 
L 336.606818 222.114564 
L 335.417898 222.114564 
z
" clip-path="url(#pabff213eab)" style="fill: #b20000"/>
   </g>
   <g id="patch_248">
    <path d="M 336.606818 224.64 
L 337.795739 224.64 
L 337.795739 224.64 
L 336.606818 224.64 
z
" clip-path="url(#pabff213eab)" style="fill: #ad0000"/>
   </g>
   <g id="patch_249">
    <path d="M 337.795739 224.64 
L 338.984659 224.64 
L 338.984659 219.589129 
L 337.795739 219.589129 
z
" clip-path="url(#pabff213eab)" style="fill: #a80000"/>
   </g>
   <g id="patch_250">
    <path d="M 338.984659 224.64 
L 340.17358 224.64 
L 340.17358 222.114564 
L 338.984659 222.114564 
z
" clip-path="url(#pabff213eab)" style="fill: #a40000"/>
   </g>
   <g id="patch_251">
    <path d="M 340.17358 224.64 
L 341.3625 224.64 
L 341.3625 224.64 
L 340.17358 224.64 
z
" clip-path="url(#pabff213eab)" style="fill: #9f0000"/>
   </g>
   <g id="patch_252">
    <path d="M 341.3625 224.64 
L 342.55142 224.64 
L 342.55142 224.64 
L 341.3625 224.64 
z
" clip-path="url(#pabff213eab)" style="fill: #9b0000"/>
   </g>
   <g id="patch_253">
    <path d="M 342.55142 224.64 
L 343.740341 224.64 
L 343.740341 222.114564 
L 342.55142 222.114564 
z
" clip-path="url(#pabff213eab)" style="fill: #960000"/>
   </g>
   <g id="patch_254">
    <path d="M 343.740341 224.64 
L 344.929261 224.64 
L 344.929261 217.063693 
L 343.740341 217.063693 
z
" clip-path="url(#pabff213eab)" style="fill: #920000"/>
   </g>
   <g id="patch_255">
    <path d="M 344.929261 224.64 
L 346.118182 224.64 
L 346.118182 224.64 
L 344.929261 224.64 
z
" clip-path="url(#pabff213eab)" style="fill: #8d0000"/>
   </g>
   <g id="patch_256">
    <path d="M 346.118182 224.64 
L 347.307102 224.64 
L 347.307102 224.64 
L 346.118182 224.64 
z
" clip-path="url(#pabff213eab)" style="fill: #890000"/>
   </g>
   <g id="patch_257">
    <path d="M 347.307102 224.64 
L 348.496023 224.64 
L 348.496023 224.64 
L 347.307102 224.64 
z
" clip-path="url(#pabff213eab)" style="fill: #840000"/>
   </g>
   <g id="patch_258">
    <path d="M 348.496023 224.64 
L 349.684943 224.64 
L 349.684943 212.012822 
L 348.496023 212.012822 
z
" clip-path="url(#pabff213eab)" style="fill: #800000"/>
   </g>
   <g id="matplotlib.axis_1">
    <g id="xtick_1">
     <g id="line2d_1">
      <defs>
       <path id="m80f8e241b8" d="M 0 0 
L 0 3.5 
" style="stroke: #000000; stroke-width: 0.8"/>
      </defs>
      <g>
       <use xlink:href="#m80f8e241b8" x="45.321134" y="224.64" style="stroke: #000000; stroke-width: 0.8"/>
      </g>
     </g>
     <g id="text_1">
      <!-- 0.00 -->
      <g transform="translate(42.561759 231.64)rotate(-270)scale(0.1 -0.1)">
       <defs>
        <path id="DejaVuSans-30" d="M 2034 4250 
Q 1547 4250 1301 3770 
Q 1056 3291 1056 2328 
Q 1056 1369 1301 889 
Q 1547 409 2034 409 
Q 2525 409 2770 889 
Q 3016 1369 3016 2328 
Q 3016 3291 2770 3770 
Q 2525 4250 2034 4250 
z
M 2034 4750 
Q 2819 4750 3233 4129 
Q 3647 3509 3647 2328 
Q 3647 1150 3233 529 
Q 2819 -91 2034 -91 
Q 1250 -91 836 529 
Q 422 1150 422 2328 
Q 422 3509 836 4129 
Q 1250 4750 2034 4750 
z
" transform="scale(0.015625)"/>
        <path id="DejaVuSans-2e" d="M 684 794 
L 1344 794 
L 1344 0 
L 684 0 
L 684 794 
z
" transform="scale(0.015625)"/>
       </defs>
       <use xlink:href="#DejaVuSans-30"/>
       <use xlink:href="#DejaVuSans-2e" x="63.623047"/>
       <use xlink:href="#DejaVuSans-30" x="95.410156"/>
       <use xlink:href="#DejaVuSans-30" x="159.033203"/>
      </g>
     </g>
    </g>
    <g id="xtick_2">
     <g id="line2d_2">
      <g>
       <use xlink:href="#m80f8e241b8" x="60.524116" y="224.64" style="stroke: #000000; stroke-width: 0.8"/>
      </g>
     </g>
     <g id="text_2">
      <!-- 0.53 -->
      <g transform="translate(57.764741 231.64)rotate(-270)scale(0.1 -0.1)">
       <defs>
        <path id="DejaVuSans-35" d="M 691 4666 
L 3169 4666 
L 3169 4134 
L 1269 4134 
L 1269 2991 
Q 1406 3038 1543 3061 
Q 1681 3084 1819 3084 
Q 2600 3084 3056 2656 
Q 3513 2228 3513 1497 
Q 3513 744 3044 326 
Q 2575 -91 1722 -91 
Q 1428 -91 1123 -41 
Q 819 9 494 109 
L 494 744 
Q 775 591 1075 516 
Q 1375 441 1709 441 
Q 2250 441 2565 725 
Q 2881 1009 2881 1497 
Q 2881 1984 2565 2268 
Q 2250 2553 1709 2553 
Q 1456 2553 1204 2497 
Q 953 2441 691 2322 
L 691 4666 
z
" transform="scale(0.015625)"/>
        <path id="DejaVuSans-33" d="M 2597 2516 
Q 3050 2419 3304 2112 
Q 3559 1806 3559 1356 
Q 3559 666 3084 287 
Q 2609 -91 1734 -91 
Q 1441 -91 1130 -33 
Q 819 25 488 141 
L 488 750 
Q 750 597 1062 519 
Q 1375 441 1716 441 
Q 2309 441 2620 675 
Q 2931 909 2931 1356 
Q 2931 1769 2642 2001 
Q 2353 2234 1838 2234 
L 1294 2234 
L 1294 2753 
L 1863 2753 
Q 2328 2753 2575 2939 
Q 2822 3125 2822 3475 
Q 2822 3834 2567 4026 
Q 2313 4219 1838 4219 
Q 1578 4219 1281 4162 
Q 984 4106 628 3988 
L 628 4550 
Q 988 4650 1302 4700 
Q 1616 4750 1894 4750 
Q 2613 4750 3031 4423 
Q 3450 4097 3450 3541 
Q 3450 3153 3228 2886 
Q 3006 2619 2597 2516 
z
" transform="scale(0.015625)"/>
       </defs>
       <use xlink:href="#DejaVuSans-30"/>
       <use xlink:href="#DejaVuSans-2e" x="63.623047"/>
       <use xlink:href="#DejaVuSans-35" x="95.410156"/>
       <use xlink:href="#DejaVuSans-33" x="159.033203"/>
      </g>
     </g>
    </g>
    <g id="xtick_3">
     <g id="line2d_3">
      <g>
       <use xlink:href="#m80f8e241b8" x="75.727097" y="224.64" style="stroke: #000000; stroke-width: 0.8"/>
      </g>
     </g>
     <g id="text_3">
      <!-- 1.07 -->
      <g transform="translate(72.967722 231.64)rotate(-270)scale(0.1 -0.1)">
       <defs>
        <path id="DejaVuSans-31" d="M 794 531 
L 1825 531 
L 1825 4091 
L 703 3866 
L 703 4441 
L 1819 4666 
L 2450 4666 
L 2450 531 
L 3481 531 
L 3481 0 
L 794 0 
L 794 531 
z
" transform="scale(0.015625)"/>
        <path id="DejaVuSans-37" d="M 525 4666 
L 3525 4666 
L 3525 4397 
L 1831 0 
L 1172 0 
L 2766 4134 
L 525 4134 
L 525 4666 
z
" transform="scale(0.015625)"/>
       </defs>
       <use xlink:href="#DejaVuSans-31"/>
       <use xlink:href="#DejaVuSans-2e" x="63.623047"/>
       <use xlink:href="#DejaVuSans-30" x="95.410156"/>
       <use xlink:href="#DejaVuSans-37" x="159.033203"/>
      </g>
     </g>
    </g>
    <g id="xtick_4">
     <g id="line2d_4">
      <g>
       <use xlink:href="#m80f8e241b8" x="90.930079" y="224.64" style="stroke: #000000; stroke-width: 0.8"/>
      </g>
     </g>
     <g id="text_4">
      <!-- 1.60 -->
      <g transform="translate(88.170704 231.64)rotate(-270)scale(0.1 -0.1)">
       <defs>
        <path id="DejaVuSans-36" d="M 2113 2584 
Q 1688 2584 1439 2293 
Q 1191 2003 1191 1497 
Q 1191 994 1439 701 
Q 1688 409 2113 409 
Q 2538 409 2786 701 
Q 3034 994 3034 1497 
Q 3034 2003 2786 2293 
Q 2538 2584 2113 2584 
z
M 3366 4563 
L 3366 3988 
Q 3128 4100 2886 4159 
Q 2644 4219 2406 4219 
Q 1781 4219 1451 3797 
Q 1122 3375 1075 2522 
Q 1259 2794 1537 2939 
Q 1816 3084 2150 3084 
Q 2853 3084 3261 2657 
Q 3669 2231 3669 1497 
Q 3669 778 3244 343 
Q 2819 -91 2113 -91 
Q 1303 -91 875 529 
Q 447 1150 447 2328 
Q 447 3434 972 4092 
Q 1497 4750 2381 4750 
Q 2619 4750 2861 4703 
Q 3103 4656 3366 4563 
z
" transform="scale(0.015625)"/>
       </defs>
       <use xlink:href="#DejaVuSans-31"/>
       <use xlink:href="#DejaVuSans-2e" x="63.623047"/>
       <use xlink:href="#DejaVuSans-36" x="95.410156"/>
       <use xlink:href="#DejaVuSans-30" x="159.033203"/>
      </g>
     </g>
    </g>
    <g id="xtick_5">
     <g id="line2d_5">
      <g>
       <use xlink:href="#m80f8e241b8" x="106.13306" y="224.64" style="stroke: #000000; stroke-width: 0.8"/>
      </g>
     </g>
     <g id="text_5">
      <!-- 2.14 -->
      <g transform="translate(103.373685 231.64)rotate(-270)scale(0.1 -0.1)">
       <defs>
        <path id="DejaVuSans-32" d="M 1228 531 
L 3431 531 
L 3431 0 
L 469 0 
L 469 531 
Q 828 903 1448 1529 
Q 2069 2156 2228 2338 
Q 2531 2678 2651 2914 
Q 2772 3150 2772 3378 
Q 2772 3750 2511 3984 
Q 2250 4219 1831 4219 
Q 1534 4219 1204 4116 
Q 875 4013 500 3803 
L 500 4441 
Q 881 4594 1212 4672 
Q 1544 4750 1819 4750 
Q 2544 4750 2975 4387 
Q 3406 4025 3406 3419 
Q 3406 3131 3298 2873 
Q 3191 2616 2906 2266 
Q 2828 2175 2409 1742 
Q 1991 1309 1228 531 
z
" transform="scale(0.015625)"/>
        <path id="DejaVuSans-34" d="M 2419 4116 
L 825 1625 
L 2419 1625 
L 2419 4116 
z
M 2253 4666 
L 3047 4666 
L 3047 1625 
L 3713 1625 
L 3713 1100 
L 3047 1100 
L 3047 0 
L 2419 0 
L 2419 1100 
L 313 1100 
L 313 1709 
L 2253 4666 
z
" transform="scale(0.015625)"/>
       </defs>
       <use xlink:href="#DejaVuSans-32"/>
       <use xlink:href="#DejaVuSans-2e" x="63.623047"/>
       <use xlink:href="#DejaVuSans-31" x="95.410156"/>
       <use xlink:href="#DejaVuSans-34" x="159.033203"/>
      </g>
     </g>
    </g>
    <g id="xtick_6">
     <g id="line2d_6">
      <g>
       <use xlink:href="#m80f8e241b8" x="121.336042" y="224.64" style="stroke: #000000; stroke-width: 0.8"/>
      </g>
     </g>
     <g id="text_6">
      <!-- 2.67 -->
      <g transform="translate(118.576667 231.64)rotate(-270)scale(0.1 -0.1)">
       <use xlink:href="#DejaVuSans-32"/>
       <use xlink:href="#DejaVuSans-2e" x="63.623047"/>
       <use xlink:href="#DejaVuSans-36" x="95.410156"/>
       <use xlink:href="#DejaVuSans-37" x="159.033203"/>
      </g>
     </g>
    </g>
    <g id="xtick_7">
     <g id="line2d_7">
      <g>
       <use xlink:href="#m80f8e241b8" x="136.539023" y="224.64" style="stroke: #000000; stroke-width: 0.8"/>
      </g>
     </g>
     <g id="text_7">
      <!-- 3.21 -->
      <g transform="translate(133.779648 231.64)rotate(-270)scale(0.1 -0.1)">
       <use xlink:href="#DejaVuSans-33"/>
       <use xlink:href="#DejaVuSans-2e" x="63.623047"/>
       <use xlink:href="#DejaVuSans-32" x="95.410156"/>
       <use xlink:href="#DejaVuSans-31" x="159.033203"/>
      </g>
     </g>
    </g>
    <g id="xtick_8">
     <g id="line2d_8">
      <g>
       <use xlink:href="#m80f8e241b8" x="151.742005" y="224.64" style="stroke: #000000; stroke-width: 0.8"/>
      </g>
     </g>
     <g id="text_8">
      <!-- 3.74 -->
      <g transform="translate(148.98263 231.64)rotate(-270)scale(0.1 -0.1)">
       <use xlink:href="#DejaVuSans-33"/>
       <use xlink:href="#DejaVuSans-2e" x="63.623047"/>
       <use xlink:href="#DejaVuSans-37" x="95.410156"/>
       <use xlink:href="#DejaVuSans-34" x="159.033203"/>
      </g>
     </g>
    </g>
    <g id="xtick_9">
     <g id="line2d_9">
      <g>
       <use xlink:href="#m80f8e241b8" x="166.944986" y="224.64" style="stroke: #000000; stroke-width: 0.8"/>
      </g>
     </g>
     <g id="text_9">
      <!-- 4.28 -->
      <g transform="translate(164.185611 231.64)rotate(-270)scale(0.1 -0.1)">
       <defs>
        <path id="DejaVuSans-38" d="M 2034 2216 
Q 1584 2216 1326 1975 
Q 1069 1734 1069 1313 
Q 1069 891 1326 650 
Q 1584 409 2034 409 
Q 2484 409 2743 651 
Q 3003 894 3003 1313 
Q 3003 1734 2745 1975 
Q 2488 2216 2034 2216 
z
M 1403 2484 
Q 997 2584 770 2862 
Q 544 3141 544 3541 
Q 544 4100 942 4425 
Q 1341 4750 2034 4750 
Q 2731 4750 3128 4425 
Q 3525 4100 3525 3541 
Q 3525 3141 3298 2862 
Q 3072 2584 2669 2484 
Q 3125 2378 3379 2068 
Q 3634 1759 3634 1313 
Q 3634 634 3220 271 
Q 2806 -91 2034 -91 
Q 1263 -91 848 271 
Q 434 634 434 1313 
Q 434 1759 690 2068 
Q 947 2378 1403 2484 
z
M 1172 3481 
Q 1172 3119 1398 2916 
Q 1625 2713 2034 2713 
Q 2441 2713 2670 2916 
Q 2900 3119 2900 3481 
Q 2900 3844 2670 4047 
Q 2441 4250 2034 4250 
Q 1625 4250 1398 4047 
Q 1172 3844 1172 3481 
z
" transform="scale(0.015625)"/>
       </defs>
       <use xlink:href="#DejaVuSans-34"/>
       <use xlink:href="#DejaVuSans-2e" x="63.623047"/>
       <use xlink:href="#DejaVuSans-32" x="95.410156"/>
       <use xlink:href="#DejaVuSans-38" x="159.033203"/>
      </g>
     </g>
    </g>
    <g id="xtick_10">
     <g id="line2d_10">
      <g>
       <use xlink:href="#m80f8e241b8" x="182.147968" y="224.64" style="stroke: #000000; stroke-width: 0.8"/>
      </g>
     </g>
     <g id="text_10">
      <!-- 4.81 -->
      <g transform="translate(179.388593 231.64)rotate(-270)scale(0.1 -0.1)">
       <use xlink:href="#DejaVuSans-34"/>
       <use xlink:href="#DejaVuSans-2e" x="63.623047"/>
       <use xlink:href="#DejaVuSans-38" x="95.410156"/>
       <use xlink:href="#DejaVuSans-31" x="159.033203"/>
      </g>
     </g>
    </g>
    <g id="xtick_11">
     <g id="line2d_11">
      <g>
       <use xlink:href="#m80f8e241b8" x="197.350949" y="224.64" style="stroke: #000000; stroke-width: 0.8"/>
      </g>
     </g>
     <g id="text_11">
      <!-- 5.35 -->
      <g transform="translate(194.591574 231.64)rotate(-270)scale(0.1 -0.1)">
       <use xlink:href="#DejaVuSans-35"/>
       <use xlink:href="#DejaVuSans-2e" x="63.623047"/>
       <use xlink:href="#DejaVuSans-33" x="95.410156"/>
       <use xlink:href="#DejaVuSans-35" x="159.033203"/>
      </g>
     </g>
    </g>
    <g id="xtick_12">
     <g id="line2d_12">
      <g>
       <use xlink:href="#m80f8e241b8" x="212.55393" y="224.64" style="stroke: #000000; stroke-width: 0.8"/>
      </g>
     </g>
     <g id="text_12">
      <!-- 5.88 -->
      <g transform="translate(209.794555 231.64)rotate(-270)scale(0.1 -0.1)">
       <use xlink:href="#DejaVuSans-35"/>
       <use xlink:href="#DejaVuSans-2e" x="63.623047"/>
       <use xlink:href="#DejaVuSans-38" x="95.410156"/>
       <use xlink:href="#DejaVuSans-38" x="159.033203"/>
      </g>
     </g>
    </g>
    <g id="xtick_13">
     <g id="line2d_13">
      <g>
       <use xlink:href="#m80f8e241b8" x="227.756912" y="224.64" style="stroke: #000000; stroke-width: 0.8"/>
      </g>
     </g>
     <g id="text_13">
      <!-- 6.42 -->
      <g transform="translate(224.997537 231.64)rotate(-270)scale(0.1 -0.1)">
       <use xlink:href="#DejaVuSans-36"/>
       <use xlink:href="#DejaVuSans-2e" x="63.623047"/>
       <use xlink:href="#DejaVuSans-34" x="95.410156"/>
       <use xlink:href="#DejaVuSans-32" x="159.033203"/>
      </g>
     </g>
    </g>
    <g id="xtick_14">
     <g id="line2d_14">
      <g>
       <use xlink:href="#m80f8e241b8" x="242.959893" y="224.64" style="stroke: #000000; stroke-width: 0.8"/>
      </g>
     </g>
     <g id="text_14">
      <!-- 6.95 -->
      <g transform="translate(240.200518 231.64)rotate(-270)scale(0.1 -0.1)">
       <defs>
        <path id="DejaVuSans-39" d="M 703 97 
L 703 672 
Q 941 559 1184 500 
Q 1428 441 1663 441 
Q 2288 441 2617 861 
Q 2947 1281 2994 2138 
Q 2813 1869 2534 1725 
Q 2256 1581 1919 1581 
Q 1219 1581 811 2004 
Q 403 2428 403 3163 
Q 403 3881 828 4315 
Q 1253 4750 1959 4750 
Q 2769 4750 3195 4129 
Q 3622 3509 3622 2328 
Q 3622 1225 3098 567 
Q 2575 -91 1691 -91 
Q 1453 -91 1209 -44 
Q 966 3 703 97 
z
M 1959 2075 
Q 2384 2075 2632 2365 
Q 2881 2656 2881 3163 
Q 2881 3666 2632 3958 
Q 2384 4250 1959 4250 
Q 1534 4250 1286 3958 
Q 1038 3666 1038 3163 
Q 1038 2656 1286 2365 
Q 1534 2075 1959 2075 
z
" transform="scale(0.015625)"/>
       </defs>
       <use xlink:href="#DejaVuSans-36"/>
       <use xlink:href="#DejaVuSans-2e" x="63.623047"/>
       <use xlink:href="#DejaVuSans-39" x="95.410156"/>
       <use xlink:href="#DejaVuSans-35" x="159.033203"/>
      </g>
     </g>
    </g>
    <g id="xtick_15">
     <g id="line2d_15">
      <g>
       <use xlink:href="#m80f8e241b8" x="258.162875" y="224.64" style="stroke: #000000; stroke-width: 0.8"/>
      </g>
     </g>
     <g id="text_15">
      <!-- 7.49 -->
      <g transform="translate(255.4035 231.64)rotate(-270)scale(0.1 -0.1)">
       <use xlink:href="#DejaVuSans-37"/>
       <use xlink:href="#DejaVuSans-2e" x="63.623047"/>
       <use xlink:href="#DejaVuSans-34" x="95.410156"/>
       <use xlink:href="#DejaVuSans-39" x="159.033203"/>
      </g>
     </g>
    </g>
    <g id="xtick_16">
     <g id="line2d_16">
      <g>
       <use xlink:href="#m80f8e241b8" x="273.365856" y="224.64" style="stroke: #000000; stroke-width: 0.8"/>
      </g>
     </g>
     <g id="text_16">
      <!-- 8.02 -->
      <g transform="translate(270.606481 231.64)rotate(-270)scale(0.1 -0.1)">
       <use xlink:href="#DejaVuSans-38"/>
       <use xlink:href="#DejaVuSans-2e" x="63.623047"/>
       <use xlink:href="#DejaVuSans-30" x="95.410156"/>
       <use xlink:href="#DejaVuSans-32" x="159.033203"/>
      </g>
     </g>
    </g>
    <g id="xtick_17">
     <g id="line2d_17">
      <g>
       <use xlink:href="#m80f8e241b8" x="288.568838" y="224.64" style="stroke: #000000; stroke-width: 0.8"/>
      </g>
     </g>
     <g id="text_17">
      <!-- 8.56 -->
      <g transform="translate(285.809463 231.64)rotate(-270)scale(0.1 -0.1)">
       <use xlink:href="#DejaVuSans-38"/>
       <use xlink:href="#DejaVuSans-2e" x="63.623047"/>
       <use xlink:href="#DejaVuSans-35" x="95.410156"/>
       <use xlink:href="#DejaVuSans-36" x="159.033203"/>
      </g>
     </g>
    </g>
    <g id="xtick_18">
     <g id="line2d_18">
      <g>
       <use xlink:href="#m80f8e241b8" x="303.771819" y="224.64" style="stroke: #000000; stroke-width: 0.8"/>
      </g>
     </g>
     <g id="text_18">
      <!-- 9.09 -->
      <g transform="translate(301.012444 231.64)rotate(-270)scale(0.1 -0.1)">
       <use xlink:href="#DejaVuSans-39"/>
       <use xlink:href="#DejaVuSans-2e" x="63.623047"/>
       <use xlink:href="#DejaVuSans-30" x="95.410156"/>
       <use xlink:href="#DejaVuSans-39" x="159.033203"/>
      </g>
     </g>
    </g>
    <g id="xtick_19">
     <g id="line2d_19">
      <g>
       <use xlink:href="#m80f8e241b8" x="318.974801" y="224.64" style="stroke: #000000; stroke-width: 0.8"/>
      </g>
     </g>
     <g id="text_19">
      <!-- 9.63 -->
      <g transform="translate(316.215426 231.64)rotate(-270)scale(0.1 -0.1)">
       <use xlink:href="#DejaVuSans-39"/>
       <use xlink:href="#DejaVuSans-2e" x="63.623047"/>
       <use xlink:href="#DejaVuSans-36" x="95.410156"/>
       <use xlink:href="#DejaVuSans-33" x="159.033203"/>
      </g>
     </g>
    </g>
    <g id="xtick_20">
     <g id="line2d_20">
      <g>
       <use xlink:href="#m80f8e241b8" x="334.177782" y="224.64" style="stroke: #000000; stroke-width: 0.8"/>
      </g>
     </g>
     <g id="text_20">
      <!-- 10.16 -->
      <g transform="translate(331.418407 231.64)rotate(-270)scale(0.1 -0.1)">
       <use xlink:href="#DejaVuSans-31"/>
       <use xlink:href="#DejaVuSans-30" x="63.623047"/>
       <use xlink:href="#DejaVuSans-2e" x="127.246094"/>
       <use xlink:href="#DejaVuSans-31" x="159.033203"/>
       <use xlink:href="#DejaVuSans-36" x="222.65625"/>
      </g>
     </g>
    </g>
    <g id="xtick_21">
     <g id="line2d_21">
      <g>
       <use xlink:href="#m80f8e241b8" x="349.380764" y="224.64" style="stroke: #000000; stroke-width: 0.8"/>
      </g>
     </g>
     <g id="text_21">
      <!-- 10.70 -->
      <g transform="translate(346.621389 231.64)rotate(-270)scale(0.1 -0.1)">
       <use xlink:href="#DejaVuSans-31"/>
       <use xlink:href="#DejaVuSans-30" x="63.623047"/>
       <use xlink:href="#DejaVuSans-2e" x="127.246094"/>
       <use xlink:href="#DejaVuSans-37" x="159.033203"/>
       <use xlink:href="#DejaVuSans-30" x="222.65625"/>
      </g>
     </g>
    </g>
   </g>
   <g id="matplotlib.axis_2">
    <g id="ytick_1">
     <g id="line2d_22">
      <defs>
       <path id="m26604f1520" d="M 0 0 
L -3.5 0 
" style="stroke: #000000; stroke-width: 0.8"/>
      </defs>
      <g>
       <use xlink:href="#m26604f1520" x="30.103125" y="224.64" style="stroke: #000000; stroke-width: 0.8"/>
      </g>
     </g>
     <g id="text_22">
      <!-- 0.0 -->
      <g transform="translate(7.2 228.439219)scale(0.1 -0.1)">
       <use xlink:href="#DejaVuSans-30"/>
       <use xlink:href="#DejaVuSans-2e" x="63.623047"/>
       <use xlink:href="#DejaVuSans-30" x="95.410156"/>
      </g>
     </g>
    </g>
    <g id="ytick_2">
     <g id="line2d_23">
      <g>
       <use xlink:href="#m26604f1520" x="30.103125" y="184.140196" style="stroke: #000000; stroke-width: 0.8"/>
      </g>
     </g>
     <g id="text_23">
      <!-- 0.1 -->
      <g transform="translate(7.2 187.939415)scale(0.1 -0.1)">
       <use xlink:href="#DejaVuSans-30"/>
       <use xlink:href="#DejaVuSans-2e" x="63.623047"/>
       <use xlink:href="#DejaVuSans-31" x="95.410156"/>
      </g>
     </g>
    </g>
    <g id="ytick_3">
     <g id="line2d_24">
      <g>
       <use xlink:href="#m26604f1520" x="30.103125" y="143.640392" style="stroke: #000000; stroke-width: 0.8"/>
      </g>
     </g>
     <g id="text_24">
      <!-- 0.2 -->
      <g transform="translate(7.2 147.439611)scale(0.1 -0.1)">
       <use xlink:href="#DejaVuSans-30"/>
       <use xlink:href="#DejaVuSans-2e" x="63.623047"/>
       <use xlink:href="#DejaVuSans-32" x="95.410156"/>
      </g>
     </g>
    </g>
    <g id="ytick_4">
     <g id="line2d_25">
      <g>
       <use xlink:href="#m26604f1520" x="30.103125" y="103.140588" style="stroke: #000000; stroke-width: 0.8"/>
      </g>
     </g>
     <g id="text_25">
      <!-- 0.3 -->
      <g transform="translate(7.2 106.939807)scale(0.1 -0.1)">
       <use xlink:href="#DejaVuSans-30"/>
       <use xlink:href="#DejaVuSans-2e" x="63.623047"/>
       <use xlink:href="#DejaVuSans-33" x="95.410156"/>
      </g>
     </g>
    </g>
    <g id="ytick_5">
     <g id="line2d_26">
      <g>
       <use xlink:href="#m26604f1520" x="30.103125" y="62.640784" style="stroke: #000000; stroke-width: 0.8"/>
      </g>
     </g>
     <g id="text_26">
      <!-- 0.4 -->
      <g transform="translate(7.2 66.440003)scale(0.1 -0.1)">
       <use xlink:href="#DejaVuSans-30"/>
       <use xlink:href="#DejaVuSans-2e" x="63.623047"/>
       <use xlink:href="#DejaVuSans-34" x="95.410156"/>
      </g>
     </g>
    </g>
    <g id="ytick_6">
     <g id="line2d_27">
      <g>
       <use xlink:href="#m26604f1520" x="30.103125" y="22.14098" style="stroke: #000000; stroke-width: 0.8"/>
      </g>
     </g>
     <g id="text_27">
      <!-- 0.5 -->
      <g transform="translate(7.2 25.940199)scale(0.1 -0.1)">
       <use xlink:href="#DejaVuSans-30"/>
       <use xlink:href="#DejaVuSans-2e" x="63.623047"/>
       <use xlink:href="#DejaVuSans-35" x="95.410156"/>
      </g>
     </g>
    </g>
   </g>
   <g id="patch_259">
    <path d="M 30.103125 224.64 
L 30.103125 7.2 
" style="fill: none; stroke: #000000; stroke-width: 0.8; stroke-linejoin: miter; stroke-linecap: square"/>
   </g>
   <g id="patch_260">
    <path d="M 364.903125 224.64 
L 364.903125 7.2 
" style="fill: none; stroke: #000000; stroke-width: 0.8; stroke-linejoin: miter; stroke-linecap: square"/>
   </g>
   <g id="patch_261">
    <path d="M 30.103125 224.64 
L 364.903125 224.64 
" style="fill: none; stroke: #000000; stroke-width: 0.8; stroke-linejoin: miter; stroke-linecap: square"/>
   </g>
   <g id="patch_262">
    <path d="M 30.103125 7.2 
L 364.903125 7.2 
" style="fill: none; stroke: #000000; stroke-width: 0.8; stroke-linejoin: miter; stroke-linecap: square"/>
   </g>
  </g>
 </g>
 <defs>
  <clipPath id="pabff213eab">
   <rect x="30.103125" y="7.2" width="334.8" height="217.44"/>
  </clipPath>
 </defs>
</svg>
